<svg width="210" height="223" viewBox="0 0 210 223" fill="none" xmlns="http://www.w3.org/2000/svg">
<mask id="mask0_6_49" style="mask-type:alpha" maskUnits="userSpaceOnUse" x="9" y="31" width="192" height="192">
<path d="M105 222.727C157.718 222.727 200.454 179.991 200.454 127.273C200.454 74.5546 157.718 31.8181 105 31.8181C52.2819 31.8181 9.54541 74.5546 9.54541 127.273C9.54541 179.991 52.2819 222.727 105 222.727Z" fill="white"/>
</mask>
<g mask="url(#mask0_6_49)">
<path d="M105 222.727C157.718 222.727 200.454 179.991 200.454 127.273C200.454 74.5546 157.718 31.8181 105 31.8181C52.2819 31.8181 9.54541 74.5546 9.54541 127.273C9.54541 179.991 52.2819 222.727 105 222.727Z" fill="#E6E6E6"/>
<path d="M200.454 31.8181H9.54541V222.727H200.454V31.8181Z" fill="#FFB742"/>
</g>
<mask id="mask1_6_49" style="mask-type:alpha" maskUnits="userSpaceOnUse" x="0" y="0" width="210" height="223">
<path d="M9.54545 127.273C9.54545 179.991 52.2819 222.727 105 222.727C157.718 222.727 200.455 179.991 200.455 127.273H210V0H0V127.273H9.54545Z" fill="white"/>
</mask>
<g mask="url(#mask1_6_49)">
</g>
</svg>
